# xmcd CD database file
#
# Track frame offsets:
#	150
#	23228
#	38670
#	65000
#	85020
#	103480
#	119635
#	137423
#	157900
#	177035
#	195493
#	215260
#
# Disc length: 3032 seconds
#
# Revision: 10
# Processed by: cddbd v1.5.2PL0 Copyright (c) Steve Scherf et al.
# Submitted via: CDex 1.51
#
DISCID=9d0bd60c
DTITLE=Lizz Wright - Salt
DYEAR=2003
DGENRE=Jazz
TTITLE0=Open Your Eyes, You Can Fly
TTITLE1=Salt
TTITLE2=Afro Blue
TTITLE3=Soon As I Get Home
TTITLE4=Walk with Me, Lord
TTITLE5=Eternity
TTITLE6=Goodbye
TTITLE7=Vocalise - End of the Line
TTITLE8=Fire
TTITLE9=Blue Rose
TTITLE10=Lead the Way
TTITLE11=Silence
EXTD=Updated by Slice!! In Detroit YEAR: 2003
EXTT0=
EXTT1=
EXTT2=
EXTT3=
EXTT4=
EXTT5=
EXTT6=
EXTT7=
EXTT8=
EXTT9=
EXTT10=
EXTT11=
PLAYORDER=
